<svg
      width="151"
      height="84"
      viewBox="0 0 151 84"
      fill="none"
      xmlns="http://www.w3.org/2000/svg"
    >
      <path
        d="M10.9773 56.0682V71H2.64205V36.0909H10.7045V49.625H10.9943C11.5852 48.0114 12.5511 46.75 13.892 45.8409C15.2443 44.9318 16.8977 44.4773 18.8523 44.4773C20.6932 44.4773 22.2955 44.8864 23.6591 45.7045C25.0227 46.5114 26.0795 47.6534 26.8295 49.1307C27.5909 50.608 27.9659 52.3352 27.9545 54.3125V71H19.6193V55.9489C19.6307 54.4943 19.267 53.358 18.5284 52.5398C17.7898 51.7216 16.75 51.3125 15.4091 51.3125C14.5341 51.3125 13.7614 51.5057 13.0909 51.892C12.4318 52.267 11.9148 52.8068 11.5398 53.5114C11.1761 54.2159 10.9886 55.0682 10.9773 56.0682ZM40.5384 71.4432C38.8679 71.4432 37.3849 71.1648 36.0895 70.608C34.8054 70.0398 33.7884 69.1875 33.0384 68.0511C32.2997 66.9034 31.9304 65.4659 31.9304 63.7386C31.9304 62.2841 32.1861 61.0568 32.6974 60.0568C33.2088 59.0568 33.9134 58.2443 34.8111 57.6193C35.7088 56.9943 36.7429 56.5227 37.9134 56.2045C39.0838 55.875 40.3338 55.6534 41.6634 55.5398C43.152 55.4034 44.3509 55.2614 45.2599 55.1136C46.169 54.9545 46.8281 54.733 47.2372 54.4489C47.6577 54.1534 47.8679 53.7386 47.8679 53.2045V53.1193C47.8679 52.2443 47.5668 51.5682 46.9645 51.0909C46.3622 50.6136 45.5497 50.375 44.527 50.375C43.4247 50.375 42.5384 50.6136 41.8679 51.0909C41.1974 51.5682 40.7713 52.2273 40.5895 53.0682L32.902 52.7955C33.1293 51.2045 33.7145 49.7841 34.6577 48.5341C35.6122 47.2727 36.919 46.2841 38.5781 45.5682C40.2486 44.8409 42.2543 44.4773 44.5952 44.4773C46.2656 44.4773 47.8054 44.6761 49.2145 45.0739C50.6236 45.4602 51.8509 46.0284 52.8963 46.7784C53.9418 47.517 54.7486 48.4261 55.3168 49.5057C55.8963 50.5852 56.1861 51.8182 56.1861 53.2045V71H48.3452V67.3523H48.1406C47.6747 68.2386 47.0781 68.9886 46.3509 69.6023C45.6349 70.2159 44.7884 70.6761 43.8111 70.983C42.8452 71.2898 41.7543 71.4432 40.5384 71.4432ZM43.1122 65.9886C44.0099 65.9886 44.8168 65.8068 45.5327 65.4432C46.2599 65.0795 46.8395 64.5795 47.2713 63.9432C47.7031 63.2955 47.919 62.5455 47.919 61.6932V59.2045C47.6804 59.3295 47.3906 59.4432 47.0497 59.5455C46.7202 59.6477 46.3565 59.7443 45.9588 59.8352C45.5611 59.9261 45.152 60.0057 44.7315 60.0739C44.3111 60.142 43.9077 60.2045 43.5213 60.2614C42.7372 60.3864 42.0668 60.5795 41.5099 60.8409C40.9645 61.1023 40.544 61.4432 40.2486 61.8636C39.9645 62.2727 39.8224 62.7614 39.8224 63.3295C39.8224 64.1932 40.1293 64.8523 40.7429 65.3068C41.3679 65.7614 42.1577 65.9886 43.1122 65.9886ZM61.2827 71V36.0909H69.6179V49.3011H69.7884C70.1293 48.5057 70.6122 47.7386 71.2372 47C71.8736 46.2614 72.6804 45.6591 73.6577 45.1932C74.6463 44.7159 75.8281 44.4773 77.2031 44.4773C79.0213 44.4773 80.7202 44.9545 82.2997 45.9091C83.8906 46.8636 85.1747 48.3352 86.152 50.3239C87.1293 52.3125 87.6179 54.8466 87.6179 57.9261C87.6179 60.892 87.1463 63.375 86.2031 65.375C85.2713 67.375 84.0099 68.875 82.419 69.875C80.8395 70.875 79.0838 71.375 77.152 71.375C75.8338 71.375 74.6918 71.1591 73.7259 70.7273C72.7599 70.2955 71.9474 69.7273 71.2884 69.0227C70.6406 68.3182 70.1406 67.5625 69.7884 66.7557H69.5327V71H61.2827ZM69.4474 57.9091C69.4474 59.3182 69.6349 60.5455 70.0099 61.5909C70.3963 62.6364 70.9474 63.4489 71.6634 64.0284C72.3906 64.5966 73.2599 64.8807 74.2713 64.8807C75.294 64.8807 76.1634 64.5966 76.8793 64.0284C77.5952 63.4489 78.1349 62.6364 78.4986 61.5909C78.8736 60.5455 79.0611 59.3182 79.0611 57.9091C79.0611 56.5 78.8736 55.2784 78.4986 54.2443C78.1349 53.2102 77.5952 52.4091 76.8793 51.8409C76.1747 51.2727 75.3054 50.9886 74.2713 50.9886C73.2486 50.9886 72.3793 51.267 71.6634 51.8239C70.9474 52.3807 70.3963 53.1761 70.0099 54.2102C69.6349 55.2443 69.4474 56.4773 69.4474 57.9091ZM91.9858 71V44.8182H100.321V71H91.9858ZM96.1619 41.767C94.9915 41.767 93.9858 41.3807 93.1449 40.608C92.304 39.8239 91.8835 38.8807 91.8835 37.7784C91.8835 36.6875 92.304 35.7557 93.1449 34.983C93.9858 34.1989 94.9915 33.8068 96.1619 33.8068C97.3438 33.8068 98.3494 34.1989 99.179 34.983C100.02 35.7557 100.44 36.6875 100.44 37.7784C100.44 38.8807 100.02 39.8239 99.179 40.608C98.3494 41.3807 97.3438 41.767 96.1619 41.767ZM120.405 44.8182V50.9545H103.888V44.8182H120.405ZM107.348 38.5455H115.683V62.767C115.683 63.2784 115.763 63.6932 115.922 64.0114C116.092 64.3182 116.337 64.5398 116.655 64.6761C116.973 64.8011 117.354 64.8636 117.797 64.8636C118.115 64.8636 118.45 64.8352 118.803 64.7784C119.166 64.7102 119.439 64.6534 119.621 64.608L120.882 70.625C120.484 70.7386 119.922 70.8807 119.195 71.0511C118.479 71.2216 117.621 71.3295 116.621 71.375C114.666 71.4659 112.99 71.2386 111.592 70.6932C110.206 70.1364 109.143 69.2727 108.405 68.1023C107.678 66.9318 107.325 65.4602 107.348 63.6875V38.5455ZM147.188 52.8125L139.534 53.017C139.455 52.4716 139.239 51.9886 138.886 51.5682C138.534 51.1364 138.074 50.8011 137.506 50.5625C136.949 50.3125 136.301 50.1875 135.562 50.1875C134.597 50.1875 133.773 50.3807 133.091 50.767C132.42 51.1534 132.091 51.6761 132.102 52.3352C132.091 52.8466 132.295 53.2898 132.716 53.6648C133.148 54.0398 133.915 54.3409 135.017 54.5682L140.062 55.5227C142.676 56.0227 144.619 56.8523 145.892 58.0114C147.176 59.1705 147.824 60.7045 147.835 62.6136C147.824 64.4091 147.29 65.9716 146.233 67.3011C145.188 68.6307 143.756 69.6648 141.938 70.4034C140.119 71.1307 138.04 71.4943 135.699 71.4943C131.96 71.4943 129.011 70.7273 126.852 69.1932C124.705 67.6477 123.477 65.5795 123.17 62.9886L131.403 62.7841C131.585 63.7386 132.057 64.4659 132.818 64.9659C133.58 65.4659 134.551 65.7159 135.733 65.7159C136.801 65.7159 137.67 65.517 138.341 65.1193C139.011 64.7216 139.352 64.1932 139.364 63.5341C139.352 62.9432 139.091 62.4716 138.58 62.1193C138.068 61.7557 137.267 61.4716 136.176 61.267L131.608 60.3977C128.983 59.9205 127.028 59.0398 125.744 57.7557C124.46 56.4602 123.824 54.8125 123.835 52.8125C123.824 51.0625 124.29 49.5682 125.233 48.3295C126.176 47.0795 127.517 46.125 129.256 45.4659C130.994 44.8068 133.045 44.4773 135.409 44.4773C138.955 44.4773 141.75 45.2216 143.795 46.7102C145.841 48.1875 146.972 50.2216 147.188 52.8125Z"
        fill="white"
      />
      <rect
        x="0.5"
        y="0.5"
        width="15"
        height="15"
        rx="3.5"
        fill="#18181B"
        stroke="#27272A"
      />
      <rect
        x="20.5"
        y="0.5"
        width="15"
        height="15"
        rx="3.5"
        fill="#4C1D95"
        stroke="#6D28D9"
      />
      <rect
        x="40.5"
        y="0.5"
        width="15"
        height="15"
        rx="3.5"
        fill="#5B21B6"
        stroke="#7C3AED"
      />
      <rect
        x="60.5"
        y="0.5"
        width="15"
        height="15"
        rx="3.5"
        fill="#6D28D9"
        stroke="#8B5CF6"
      />
      <rect
        x="80.5"
        y="0.5"
        width="15"
        height="15"
        rx="3.5"
        fill="#7C3AED"
        stroke="#A78BFA"
      />
      <rect
        x="100.5"
        y="0.5"
        width="15"
        height="15"
        rx="3.5"
        fill="#8B5CF6"
        stroke="#C4B5FD"
      />
      <path
        d="M1011.12 42H1024.88"
        stroke="#8B5CF6"
        stroke-width="1.88"
        stroke-linecap="round"
        stroke-linejoin="round"
      />
      <path
        d="M1018 35.125V48.875"
        stroke="#8B5CF6"
        stroke-width="1.88"
        stroke-linecap="round"
        stroke-linejoin="round"
      />
      <path
        d="M1041.15 48V36.3636H1045.51C1046.41 36.3636 1047.16 36.5189 1047.76 36.8295C1048.37 37.1402 1048.83 37.5758 1049.14 38.1364C1049.46 38.6932 1049.61 39.3428 1049.61 40.0852C1049.61 40.8314 1049.45 41.4792 1049.14 42.0284C1048.82 42.5739 1048.36 42.9962 1047.74 43.2955C1047.13 43.5909 1046.38 43.7386 1045.48 43.7386H1042.38V41.9886H1045.2C1045.72 41.9886 1046.15 41.9167 1046.48 41.7727C1046.82 41.625 1047.06 41.411 1047.22 41.1307C1047.38 40.8466 1047.47 40.4981 1047.47 40.0852C1047.47 39.6723 1047.38 39.3201 1047.22 39.0284C1047.06 38.733 1046.81 38.5095 1046.48 38.358C1046.14 38.2027 1045.71 38.125 1045.19 38.125H1043.26V48H1041.15ZM1047.16 42.7273L1050.04 48H1047.69L1044.86 42.7273H1047.16ZM1055.2 48.1705C1054.33 48.1705 1053.57 47.9886 1052.93 47.625C1052.3 47.2576 1051.82 46.7386 1051.47 46.0682C1051.13 45.3939 1050.96 44.6004 1050.96 43.6875C1050.96 42.7898 1051.13 42.0019 1051.47 41.3239C1051.82 40.642 1052.3 40.1117 1052.92 39.733C1053.54 39.3504 1054.26 39.1591 1055.09 39.1591C1055.63 39.1591 1056.14 39.2462 1056.62 39.4205C1057.1 39.5909 1057.52 39.8561 1057.89 40.2159C1058.26 40.5758 1058.55 41.0341 1058.76 41.5909C1058.98 42.1439 1059.08 42.803 1059.08 43.5682V44.1989H1051.93V42.8125H1057.11C1057.11 42.4186 1057.02 42.0682 1056.86 41.7614C1056.69 41.4508 1056.46 41.2064 1056.16 41.0284C1055.86 40.8504 1055.52 40.7614 1055.12 40.7614C1054.7 40.7614 1054.33 40.8636 1054.01 41.0682C1053.7 41.2689 1053.45 41.5341 1053.27 41.8636C1053.1 42.1894 1053.01 42.5473 1053 42.9375V44.1477C1053 44.6553 1053.1 45.0909 1053.28 45.4545C1053.47 45.8144 1053.73 46.0909 1054.06 46.2841C1054.39 46.4735 1054.78 46.5682 1055.23 46.5682C1055.53 46.5682 1055.8 46.5265 1056.04 46.4432C1056.29 46.3561 1056.5 46.2292 1056.67 46.0625C1056.85 45.8958 1056.99 45.6894 1057.08 45.4432L1059 45.6591C1058.88 46.1667 1058.64 46.6098 1058.3 46.9886C1057.97 47.3636 1057.54 47.6553 1057.01 47.8636C1056.48 48.0682 1055.88 48.1705 1055.2 48.1705ZM1064.62 51.4545C1063.88 51.4545 1063.24 51.3542 1062.71 51.1534C1062.18 50.9564 1061.76 50.6913 1061.44 50.358C1061.11 50.0246 1060.89 49.6553 1060.77 49.25L1062.62 48.8011C1062.7 48.9716 1062.82 49.1402 1062.98 49.3068C1063.14 49.4773 1063.35 49.6174 1063.62 49.7273C1063.9 49.8409 1064.24 49.8977 1064.65 49.8977C1065.24 49.8977 1065.72 49.7557 1066.1 49.4716C1066.48 49.1913 1066.67 48.7292 1066.67 48.0852V46.4318H1066.57C1066.47 46.6439 1066.31 46.8617 1066.11 47.0852C1065.91 47.3087 1065.64 47.4962 1065.31 47.6477C1064.98 47.7992 1064.56 47.875 1064.06 47.875C1063.39 47.875 1062.78 47.7178 1062.24 47.4034C1061.7 47.0852 1061.26 46.6117 1060.94 45.983C1060.62 45.3504 1060.46 44.5587 1060.46 43.608C1060.46 42.6496 1060.62 41.8409 1060.94 41.1818C1061.26 40.5189 1061.7 40.017 1062.24 39.6761C1062.79 39.3314 1063.4 39.1591 1064.07 39.1591C1064.58 39.1591 1065 39.2462 1065.33 39.4205C1065.66 39.5909 1065.93 39.7973 1066.12 40.0398C1066.32 40.2784 1066.47 40.5038 1066.57 40.7159H1066.69V39.2727H1068.71V48.142C1068.71 48.8883 1068.54 49.5057 1068.18 49.9943C1067.82 50.483 1067.34 50.8485 1066.72 51.0909C1066.1 51.3333 1065.4 51.4545 1064.62 51.4545ZM1064.63 46.2614C1065.07 46.2614 1065.44 46.1553 1065.75 45.9432C1066.06 45.7311 1066.29 45.4261 1066.45 45.0284C1066.61 44.6307 1066.69 44.1534 1066.69 43.5966C1066.69 43.0473 1066.61 42.5663 1066.45 42.1534C1066.29 41.7405 1066.06 41.4205 1065.75 41.1932C1065.45 40.9621 1065.08 40.8466 1064.63 40.8466C1064.18 40.8466 1063.79 40.9659 1063.49 41.2045C1063.18 41.4432 1062.95 41.7708 1062.79 42.1875C1062.64 42.6004 1062.56 43.0701 1062.56 43.5966C1062.56 44.1307 1062.64 44.5985 1062.79 45C1062.95 45.3977 1063.19 45.7083 1063.49 45.9318C1063.8 46.1515 1064.18 46.2614 1064.63 46.2614ZM1070.82 48V39.2727H1072.88V48H1070.82ZM1071.86 38.0341C1071.53 38.0341 1071.25 37.9261 1071.02 37.7102C1070.78 37.4905 1070.66 37.2273 1070.66 36.9205C1070.66 36.6098 1070.78 36.3466 1071.02 36.1307C1071.25 35.911 1071.53 35.8011 1071.86 35.8011C1072.19 35.8011 1072.47 35.911 1072.7 36.1307C1072.93 36.3466 1073.05 36.6098 1073.05 36.9205C1073.05 37.2273 1072.93 37.4905 1072.7 37.7102C1072.47 37.9261 1072.19 38.0341 1071.86 38.0341ZM1081.89 41.5795L1080.02 41.7841C1079.96 41.5947 1079.87 41.4167 1079.74 41.25C1079.61 41.0833 1079.44 40.9489 1079.22 40.8466C1079 40.7443 1078.73 40.6932 1078.41 40.6932C1077.98 40.6932 1077.62 40.786 1077.33 40.9716C1077.04 41.1572 1076.9 41.3977 1076.9 41.6932C1076.9 41.947 1076.99 42.1534 1077.18 42.3125C1077.38 42.4716 1077.69 42.6023 1078.14 42.7045L1079.62 43.0227C1080.45 43.2008 1081.06 43.483 1081.47 43.8693C1081.87 44.2557 1082.08 44.7614 1082.08 45.3864C1082.08 45.9356 1081.91 46.4205 1081.6 46.8409C1081.28 47.2576 1080.84 47.5833 1080.28 47.8182C1079.72 48.053 1079.08 48.1705 1078.35 48.1705C1077.28 48.1705 1076.42 47.947 1075.77 47.5C1075.12 47.0492 1074.73 46.4223 1074.61 45.6193L1076.61 45.4261C1076.7 45.8201 1076.9 46.1174 1077.19 46.3182C1077.49 46.5189 1077.87 46.6193 1078.35 46.6193C1078.84 46.6193 1079.23 46.5189 1079.52 46.3182C1079.82 46.1174 1079.97 45.8693 1079.97 45.5739C1079.97 45.3239 1079.88 45.1174 1079.68 44.9545C1079.49 44.7917 1079.2 44.6667 1078.8 44.5795L1077.31 44.267C1076.47 44.0928 1075.85 43.7992 1075.45 43.3864C1075.05 42.9697 1074.85 42.4432 1074.85 41.8068C1074.85 41.2689 1074.99 40.803 1075.29 40.4091C1075.59 40.0114 1076 39.7045 1076.53 39.4886C1077.07 39.2689 1077.68 39.1591 1078.38 39.1591C1079.4 39.1591 1080.21 39.3769 1080.8 39.8125C1081.39 40.2481 1081.75 40.8371 1081.89 41.5795ZM1088.13 39.2727V40.8636H1083.12V39.2727H1088.13ZM1084.36 37.1818H1086.41V45.375C1086.41 45.6515 1086.45 45.8636 1086.54 46.0114C1086.62 46.1553 1086.74 46.2538 1086.88 46.3068C1087.02 46.3598 1087.17 46.3864 1087.34 46.3864C1087.47 46.3864 1087.59 46.3769 1087.7 46.358C1087.81 46.339 1087.89 46.322 1087.95 46.3068L1088.29 47.9148C1088.18 47.9527 1088.03 47.9943 1087.82 48.0398C1087.62 48.0852 1087.37 48.1117 1087.08 48.1193C1086.57 48.1345 1086.1 48.0568 1085.69 47.8864C1085.28 47.7121 1084.95 47.4432 1084.71 47.0795C1084.47 46.7159 1084.35 46.2614 1084.36 45.7159V37.1818ZM1089.85 48V39.2727H1091.85V40.7273H1091.94C1092.1 40.2235 1092.37 39.8352 1092.76 39.5625C1093.15 39.286 1093.59 39.1477 1094.09 39.1477C1094.21 39.1477 1094.33 39.1534 1094.47 39.1648C1094.62 39.1723 1094.74 39.1856 1094.83 39.2045V41.0966C1094.74 41.0663 1094.61 41.0398 1094.42 41.017C1094.23 40.9905 1094.05 40.9773 1093.88 40.9773C1093.5 40.9773 1093.16 41.0587 1092.87 41.2216C1092.57 41.3807 1092.34 41.6023 1092.17 41.8864C1092 42.1705 1091.91 42.4981 1091.91 42.8693V48H1089.85ZM1098.55 48.1761C1098 48.1761 1097.5 48.0777 1097.06 47.8807C1096.62 47.6799 1096.27 47.3845 1096.01 46.9943C1095.76 46.6042 1095.63 46.1231 1095.63 45.5511C1095.63 45.0587 1095.72 44.6515 1095.9 44.3295C1096.09 44.0076 1096.33 43.75 1096.65 43.5568C1096.96 43.3636 1097.32 43.2178 1097.71 43.1193C1098.11 43.017 1098.52 42.9432 1098.94 42.8977C1099.46 42.8447 1099.87 42.7973 1100.19 42.7557C1100.51 42.7102 1100.74 42.642 1100.88 42.5511C1101.03 42.4564 1101.1 42.3106 1101.1 42.1136V42.0795C1101.1 41.6515 1100.98 41.3201 1100.72 41.0852C1100.47 40.8504 1100.1 40.733 1099.63 40.733C1099.12 40.733 1098.72 40.8428 1098.43 41.0625C1098.14 41.2822 1097.94 41.5417 1097.84 41.8409L1095.92 41.5682C1096.07 41.0379 1096.32 40.5947 1096.67 40.2386C1097.01 39.8788 1097.44 39.6098 1097.94 39.4318C1098.45 39.25 1099.01 39.1591 1099.62 39.1591C1100.04 39.1591 1100.45 39.2083 1100.87 39.3068C1101.29 39.4053 1101.67 39.5682 1102.01 39.7955C1102.36 40.0189 1102.63 40.3239 1102.84 40.7102C1103.05 41.0966 1103.16 41.5795 1103.16 42.1591V48H1101.18V46.8011H1101.12C1100.99 47.0436 1100.81 47.2708 1100.59 47.483C1100.36 47.6913 1100.08 47.8598 1099.74 47.9886C1099.4 48.1136 1099.01 48.1761 1098.55 48.1761ZM1099.09 46.6648C1099.5 46.6648 1099.86 46.5833 1100.16 46.4205C1100.46 46.2538 1100.7 46.0341 1100.86 45.7614C1101.03 45.4886 1101.11 45.1913 1101.11 44.8693V43.8409C1101.04 43.8939 1100.94 43.9432 1100.78 43.9886C1100.63 44.0341 1100.46 44.0739 1100.27 44.108C1100.08 44.142 1099.89 44.1723 1099.71 44.1989C1099.52 44.2254 1099.36 44.2481 1099.22 44.267C1098.92 44.3087 1098.64 44.3769 1098.4 44.4716C1098.16 44.5663 1097.97 44.6989 1097.83 44.8693C1097.69 45.036 1097.62 45.2519 1097.62 45.517C1097.62 45.8958 1097.75 46.1818 1098.03 46.375C1098.31 46.5682 1098.66 46.6648 1099.09 46.6648ZM1105.23 48V39.2727H1107.22V40.7273H1107.31C1107.47 40.2235 1107.75 39.8352 1108.13 39.5625C1108.52 39.286 1108.97 39.1477 1109.47 39.1477C1109.58 39.1477 1109.71 39.1534 1109.85 39.1648C1109.99 39.1723 1110.11 39.1856 1110.21 39.2045V41.0966C1110.12 41.0663 1109.98 41.0398 1109.79 41.017C1109.61 40.9905 1109.43 40.9773 1109.25 40.9773C1108.88 40.9773 1108.54 41.0587 1108.24 41.2216C1107.94 41.3807 1107.71 41.6023 1107.54 41.8864C1107.37 42.1705 1107.29 42.4981 1107.29 42.8693V48H1105.23ZM1115.54 48V39.2727H1117.51V40.7557H1117.61C1117.79 40.2557 1118.09 39.8655 1118.51 39.5852C1118.93 39.3011 1119.44 39.1591 1120.02 39.1591C1120.61 39.1591 1121.11 39.303 1121.51 39.5909C1121.92 39.875 1122.21 40.2633 1122.38 40.7557H1122.47C1122.66 40.2708 1122.99 39.8845 1123.44 39.5966C1123.91 39.3049 1124.45 39.1591 1125.09 39.1591C1125.89 39.1591 1126.54 39.4129 1127.05 39.9205C1127.56 40.428 1127.81 41.1686 1127.81 42.142V48H1125.75V42.4602C1125.75 41.9186 1125.61 41.5227 1125.32 41.2727C1125.03 41.0189 1124.68 40.892 1124.26 40.892C1123.77 40.892 1123.38 41.0473 1123.1 41.358C1122.82 41.6648 1122.68 42.0644 1122.68 42.5568V48H1120.67V42.375C1120.67 41.9242 1120.53 41.5644 1120.26 41.2955C1119.99 41.0265 1119.64 40.892 1119.2 40.892C1118.9 40.892 1118.64 40.9678 1118.39 41.1193C1118.15 41.267 1117.96 41.4773 1117.81 41.75C1117.67 42.0189 1117.6 42.3333 1117.6 42.6932V48H1115.54ZM1133.76 48.1705C1132.89 48.1705 1132.13 47.9886 1131.5 47.625C1130.86 47.2576 1130.38 46.7386 1130.04 46.0682C1129.7 45.3939 1129.53 44.6004 1129.53 43.6875C1129.53 42.7898 1129.7 42.0019 1130.04 41.3239C1130.38 40.642 1130.86 40.1117 1131.48 39.733C1132.1 39.3504 1132.82 39.1591 1133.66 39.1591C1134.19 39.1591 1134.7 39.2462 1135.18 39.4205C1135.66 39.5909 1136.08 39.8561 1136.45 40.2159C1136.82 40.5758 1137.11 41.0341 1137.33 41.5909C1137.54 42.1439 1137.64 42.803 1137.64 43.5682V44.1989H1130.49V42.8125H1135.67C1135.67 42.4186 1135.58 42.0682 1135.42 41.7614C1135.25 41.4508 1135.02 41.2064 1134.72 41.0284C1134.42 40.8504 1134.08 40.7614 1133.68 40.7614C1133.26 40.7614 1132.89 40.8636 1132.58 41.0682C1132.26 41.2689 1132.01 41.5341 1131.83 41.8636C1131.66 42.1894 1131.57 42.5473 1131.57 42.9375V44.1477C1131.57 44.6553 1131.66 45.0909 1131.84 45.4545C1132.03 45.8144 1132.29 46.0909 1132.62 46.2841C1132.96 46.4735 1133.35 46.5682 1133.79 46.5682C1134.09 46.5682 1134.36 46.5265 1134.61 46.4432C1134.85 46.3561 1135.06 46.2292 1135.24 46.0625C1135.41 45.8958 1135.55 45.6894 1135.64 45.4432L1137.56 45.6591C1137.44 46.1667 1137.21 46.6098 1136.87 46.9886C1136.53 47.3636 1136.1 47.6553 1135.57 47.8636C1135.04 48.0682 1134.44 48.1705 1133.76 48.1705ZM1144.95 44.3295V39.2727H1147V48H1145.01V46.4489H1144.92C1144.72 46.9375 1144.4 47.3371 1143.95 47.6477C1143.5 47.9583 1142.95 48.1136 1142.29 48.1136C1141.72 48.1136 1141.22 47.9867 1140.78 47.733C1140.34 47.4754 1140 47.1023 1139.75 46.6136C1139.51 46.1212 1139.38 45.5265 1139.38 44.8295V39.2727H1141.44V44.5114C1141.44 45.0644 1141.59 45.5038 1141.9 45.8295C1142.2 46.1553 1142.6 46.3182 1143.09 46.3182C1143.39 46.3182 1143.69 46.2443 1143.97 46.0966C1144.25 45.9489 1144.49 45.7292 1144.67 45.4375C1144.85 45.142 1144.95 44.7727 1144.95 44.3295ZM1156.33 48.1534C1155.64 48.1534 1155.03 47.9773 1154.49 47.625C1153.94 47.2727 1153.52 46.7614 1153.2 46.0909C1152.89 45.4205 1152.73 44.6061 1152.73 43.6477C1152.73 42.678 1152.89 41.8598 1153.21 41.1932C1153.53 40.5227 1153.96 40.017 1154.51 39.6761C1155.05 39.3314 1155.66 39.1591 1156.33 39.1591C1156.84 39.1591 1157.26 39.2462 1157.59 39.4205C1157.92 39.5909 1158.18 39.7973 1158.38 40.0398C1158.57 40.2784 1158.72 40.5038 1158.83 40.7159H1158.91V36.3636H1160.97V48H1158.95V46.625H1158.83C1158.72 46.8371 1158.57 47.0625 1158.37 47.3011C1158.17 47.536 1157.9 47.7367 1157.57 47.9034C1157.24 48.0701 1156.83 48.1534 1156.33 48.1534ZM1156.9 46.4659C1157.34 46.4659 1157.71 46.3485 1158.01 46.1136C1158.32 45.875 1158.55 45.5436 1158.71 45.1193C1158.87 44.6951 1158.95 44.2008 1158.95 43.6364C1158.95 43.072 1158.87 42.5814 1158.71 42.1648C1158.56 41.7481 1158.33 41.4242 1158.02 41.1932C1157.72 40.9621 1157.34 40.8466 1156.9 40.8466C1156.44 40.8466 1156.06 40.9659 1155.75 41.2045C1155.45 41.4432 1155.21 41.7727 1155.06 42.1932C1154.9 42.6136 1154.83 43.0947 1154.83 43.6364C1154.83 44.1818 1154.9 44.6686 1155.06 45.0966C1155.22 45.5208 1155.45 45.8561 1155.76 46.1023C1156.07 46.3447 1156.45 46.4659 1156.9 46.4659ZM1163.17 48V39.2727H1165.22V48H1163.17ZM1164.2 38.0341C1163.87 38.0341 1163.59 37.9261 1163.36 37.7102C1163.12 37.4905 1163.01 37.2273 1163.01 36.9205C1163.01 36.6098 1163.12 36.3466 1163.36 36.1307C1163.59 35.911 1163.87 35.8011 1164.2 35.8011C1164.53 35.8011 1164.81 35.911 1165.04 36.1307C1165.28 36.3466 1165.39 36.6098 1165.39 36.9205C1165.39 37.2273 1165.28 37.4905 1165.04 37.7102C1164.81 37.9261 1164.53 38.0341 1164.2 38.0341ZM1169.85 48.1761C1169.3 48.1761 1168.8 48.0777 1168.36 47.8807C1167.92 47.6799 1167.57 47.3845 1167.31 46.9943C1167.06 46.6042 1166.93 46.1231 1166.93 45.5511C1166.93 45.0587 1167.02 44.6515 1167.2 44.3295C1167.38 44.0076 1167.63 43.75 1167.95 43.5568C1168.26 43.3636 1168.61 43.2178 1169.01 43.1193C1169.41 43.017 1169.82 42.9432 1170.24 42.8977C1170.75 42.8447 1171.17 42.7973 1171.49 42.7557C1171.8 42.7102 1172.04 42.642 1172.18 42.5511C1172.33 42.4564 1172.4 42.3106 1172.4 42.1136V42.0795C1172.4 41.6515 1172.27 41.3201 1172.02 41.0852C1171.77 40.8504 1171.4 40.733 1170.92 40.733C1170.42 40.733 1170.02 40.8428 1169.72 41.0625C1169.43 41.2822 1169.24 41.5417 1169.13 41.8409L1167.21 41.5682C1167.36 41.0379 1167.61 40.5947 1167.96 40.2386C1168.31 39.8788 1168.74 39.6098 1169.24 39.4318C1169.75 39.25 1170.3 39.1591 1170.91 39.1591C1171.33 39.1591 1171.75 39.2083 1172.17 39.3068C1172.58 39.4053 1172.96 39.5682 1173.31 39.7955C1173.65 40.0189 1173.93 40.3239 1174.14 40.7102C1174.35 41.0966 1174.46 41.5795 1174.46 42.1591V48H1172.48V46.8011H1172.41C1172.29 47.0436 1172.11 47.2708 1171.88 47.483C1171.66 47.6913 1171.38 47.8598 1171.04 47.9886C1170.7 48.1136 1170.3 48.1761 1169.85 48.1761ZM1170.38 46.6648C1170.8 46.6648 1171.15 46.5833 1171.46 46.4205C1171.76 46.2538 1171.99 46.0341 1172.16 45.7614C1172.32 45.4886 1172.41 45.1913 1172.41 44.8693V43.8409C1172.34 43.8939 1172.23 43.9432 1172.08 43.9886C1171.93 44.0341 1171.75 44.0739 1171.57 44.108C1171.38 44.142 1171.19 44.1723 1171 44.1989C1170.82 44.2254 1170.66 44.2481 1170.52 44.267C1170.21 44.3087 1169.94 44.3769 1169.7 44.4716C1169.45 44.5663 1169.26 44.6989 1169.12 44.8693C1168.98 45.036 1168.91 45.2519 1168.91 45.517C1168.91 45.8958 1169.05 46.1818 1169.33 46.375C1169.6 46.5682 1169.96 46.6648 1170.38 46.6648Z"
        fill="white"
      />
      <rect
        x="984.5"
        y="16.5"
        width="215"
        height="51"
        rx="7.5"
        stroke="#8B5CF6"
      />
    </svg>